# xmcd
#
# Track frame offsets: 
#        150
#        14862
#        30909
#        47444
#        61942
#        78776
#        96764
#        111837
#        127552
#        142698
#        161780
#        180427
#
# Disc length: 2650 seconds
#
# Revision: 0
# Processed by: cddbd v1.5.2PL0 Copyright (c) Steve Scherf et al.
# Submitted via: ExactAudioCopy v0.90b4
#
DISCID=840a580c
DTITLE=Siw Karin Nilsen - Naked
DYEAR=2012
DGENRE=Pop
TTITLE0=Help Me Make It Through The Night
TTITLE1=Only You
TTITLE2=There Goes My Everything
TTITLE3=Count Me In
TTITLE4=Coming Down In The Rain
TTITLE5=The Rose
TTITLE6=Crying Time
TTITLE7=Soon
TTITLE8=The Fool
TTITLE9=I Don't Wanna Live Without Your Love
TTITLE10=Hello
TTITLE11=The Water Is Wide
EXTD=
EXTT0=
EXTT1=
EXTT2=
EXTT3=
EXTT4=
EXTT5=
EXTT6=
EXTT7=
EXTT8=
EXTT9=
EXTT10=
EXTT11=
PLAYORDER=
